<?xml version="1.0" encoding="UTF-8"?>
<svg id="Ebene_2" data-name="Ebene 2" xmlns="http://www.w3.org/2000/svg" viewBox="0 0 166.33 133.04"><metadata><c2pa:manifest xmlns:c2pa="http://c2pa.org/manifest">AAA0RWp1bWIAAAAeanVtZGMycGEAEQAQgAAAqgA4m3EDYzJwYQAAADQfanVtYgAAAEdqdW1kYzJtYQARABCAAACqADibcQN1cm46dXVpZDpkMDE2NGIxYy1iNWYyLTRlNjQtYjg1OS1lMTFlOWFkNjg2MjYAAAABtGp1bWIAAAApanVtZGMyYXMAEQAQgAAAqgA4m3EDYzJwYS5hc3NlcnRpb25zAAAAANdqdW1iAAAAJmp1bWRjYm9yABEAEIAAAKoAOJtxA2MycGEuYWN0aW9ucwAAAACpY2JvcqFnYWN0aW9uc4GjZmFjdGlvbmtjMnBhLmVkaXRlZG1zb2Z0d2FyZUFnZW50bUFkb2JlIEZpcmVmbHlxZGlnaXRhbFNvdXJjZVR5cGV4U2h0dHA6Ly9jdi5pcHRjLm9yZy9uZXdzY29kZXMvZGlnaXRhbHNvdXJjZXR5cGUvY29tcG9zaXRlV2l0aFRyYWluZWRBbGdvcml0aG1pY01lZGlhAAAArGp1bWIAAAAoanVtZGNib3IAEQAQgAAAqgA4m3EDYzJwYS5oYXNoLmRhdGEAAAAAfGNib3KlamV4Y2x1c2lvbnOBomVzdGFydBjLZmxlbmd0aBlFtGRuYW1lbmp1bWJmIG1hbmlmZXN0Y2FsZ2ZzaGEyNTZkaGFzaFggYJIBheUHtvXyEaxQjjHr9jznFbmdyp1AD6HtRnlslrVjcGFkSQAAAAAAAAAAAAAAAgxqdW1iAAAAJGp1bWRjMmNsABEAEIAAAKoAOJtxA2MycGEuY2xhaW0AAAAB4GNib3KoaGRjOnRpdGxlb0dlbmVyYXRlZCBJbWFnZWlkYzpmb3JtYXRtaW1hZ2Uvc3ZnK3htbGppbnN0YW5jZUlEeCx4bXA6aWlkOjM4NWM3OTY0LWFhNGItNDJlZi1hZWI0LTk2NGJmODdlMmE0ZW9jbGFpbV9nZW5lcmF0b3J4N0Fkb2JlX0lsbHVzdHJhdG9yLzMwLjEgYWRvYmVfYzJwYS8wLjEyLjIgYzJwYS1ycy8wLjMyLjV0Y2xhaW1fZ2VuZXJhdG9yX2luZm+Bv2RuYW1lcUFkb2JlIElsbHVzdHJhdG9yZ3ZlcnNpb25kMzAuMf9pc2lnbmF0dXJleBlzZWxmI2p1bWJmPWMycGEuc2lnbmF0dXJlamFzc2VydGlvbnOComN1cmx4J3NlbGYjanVtYmY9YzJwYS5hc3NlcnRpb25zL2MycGEuYWN0aW9uc2RoYXNoWCBKacG9/6jeQTB4viTtzPgxOsHRZJU0VnGgDWsGszfUr6JjdXJseClzZWxmI2p1bWJmPWMycGEuYXNzZXJ0aW9ucy9jMnBhLmhhc2guZGF0YWRoYXNoWCAxREi4OYhHvh7/7swM+XjIdkNkFGKJnNgzFag2UPUdiGNhbGdmc2hhMjU2AAAwEGp1bWIAAAAoanVtZGMyY3MAEQAQgAAAqgA4m3EDYzJwYS5zaWduYXR1cmUAAAAv4GNib3LShFkNFKIBOCQYIYJZBqAwggacMIIEhKADAgECAhRJcyBrPnXfyWyvf1b/LSqtsEAH3TANBgkqhkiG9w0BAQsFADB1MQswCQYDVQQGEwJVUzEjMCEGA1UEChMaQWRvYmUgU3lzdGVtcyBJbmNvcnBvcmF0ZWQxHTAbBgNVBAsTFEFkb2JlIFRydXN0IFNlcnZpY2VzMSIwIAYDVQQDExlBZG9iZSBQcm9kdWN0IFNlcnZpY2VzIEc0MB4XDTI1MTAwNzE2MzkwN1oXDTI2MTAwNzE2MzkwN1owgasxEzARBgNVBAMMCkFkb2JlIEMyUEExKDAmBgNVBAsMH0NvbnRlbnQgQXV0aGVudGljaXR5IEluaXRpYXRpdmUxEzARBgNVBAoMCkFkb2JlIEluYy4xETAPBgNVBAcMCFNhbiBKb3NlMRMwEQYDVQQIDApDYWxpZm9ybmlhMQswCQYDVQQGEwJVUzEgMB4GCSqGSIb3DQEJARYRY2FpLW9wc0BhZG9iZS5jb20wggEiMA0GCSqGSIb3DQEBAQUAA4IBDwAwggEKAoIBAQDDEMGB0H09cukxc/Dmg2BiQVYM8/VpJ+2H1Nk8g0605CWGnW/iH6EzFlYWORndElG6hIGuxJJgFoR+IMwqKyL+w7G4UcoFX/+XWu/dKuOuLEA1ciWqMZ0hjJ1oxoVr/mi8XP+bj5JTPRxxjOrD69IDO5HJIaemCbwaaP5IQlwv8YgfOpT1tTLc2yLNjahjbzKPfatuQ6p4ANIznU6ogkqWgQEUV7HMy6fOlT4rawuqF6hHwUkxpHR8Zdr+CpHOGSIEWHBSEs9L2zr5MKfPT1RkyVdt0b+IUqPdQ8VQOOqHTC0WBzPbgOtSVpZ6KW0oei7KYEe6KvO+Y4bRW1I96nE5AgMBAAGjggHrMIIB5zAMBgNVHRMBAf8EAjAAMB0GA1UdDgQWBBRY9QN+0GYM4Y4OVqGXQknSuyfC/jAfBgNVHSMEGDAWgBTQrUKK8HoUByXGl8BDqCOF6LUtIzAOBgNVHQ8BAf8EBAMCB4AwKgYDVR0lBCMwIQYJKoZIhvcvAQEMBgorBgEEAYPoXgIBBggrBgEFBQcDBDCBgAYIKwYBBQUHAQEEdDByMCgGCCsGAQUFBzABhhxodHRwOi8vb2NzcC5vbmUuZGlnaWNlcnQuY29tMEYGCCsGAQUFBzAChjpodHRwOi8vY2FjZXJ0cy5vbmUuZGlnaWNlcnQuY29tL0Fkb2JlUHJvZHVjdFNlcnZpY2VzRzQuY3J0MEcGA1UdHwRAMD4wPKA6oDiGNmh0dHA6Ly9jcmwub25lLmRpZ2ljZXJ0LmNvbS9BZG9iZVByb2R1Y3RTZXJ2aWNlc0c0LmNybDCBjgYDVR0gBIGGMIGDMIGABgkqhkiG9y8BAgMwczBxBggrBgEFBQcCAjBlDGNZb3UgYXJlIG5vdCBwZXJtaXR0ZWQgdG8gdXNlIHRoaXMgTGljZW5zZSBDZXJ0aWZpY2F0ZSBleGNlcHQgYXMgcGVybWl0dGVkIGJ5IHRoZSBsaWNlbnNlIGFncmVlbWVudC4wDQYJKoZIhvcNAQELBQADggIBAJs7c8VwrVF+V6FDXrEeoTUZzzqRJGAXoQ7AiV6daRHHZVJPY2NO9OU6dahtUvF/2AUgw216awWggF82Zz5Hu34Y0Mz6FJ+y0smSoWoCVA61OJo5qSDpzS5tJVaqCx7+mI9rXmT+qsuki7hUF7cGbK05JJX4cU48qx3tw7T2wl4Mxq2TcriMcx79qdcRJReVo362iW9eDqoBDxcTVxJvrlAUGJrBQx6PqNBuQ1mneOeis4GpIl87EhDDv39acUxh/FEf+UjauxjjdimGpdwFeJ+MlDSPEUyokY2ubb/I4MvoEZW2uOf3uSh9lbZwoXPmsNJPOVwURwpQAHWJbt555NIqXNGRX46TaJvziVMWA1uL1QGdPcotLoSRksQil0DaHhK56fWnAeNaZmzFYDeH/f06hyw56Ass2+l1VEuW1/bqPvahpAd9PRDKHOvMNbjwUk3eiUmqUIEKTQbnCnc7kqkZ3I+r2EAaNMmu+nGycJdKqjplnO8mV+QmqQBrpd/3YsrrLCudTPLxoERASfIEXvqOg8zeBNYyclU8I+XUH0XLD63KpiC00yAnK+W0hyWvHirsMuW4ytv3YGeg3qdrD5t3Pkg3+ipHUoTNiuEPbiil2S1j0CyvdHcoUOB0++/+v9GTi921ieTIB1zzPGfKGdQdykAf0UOysArVG+Brix6yWQZnMIIGYzCCBEugAwIBAgIQDuG63614rm8mvVElmAeILzANBgkqhkiG9w0BAQsFADBsMQswCQYDVQQGEwJVUzEjMCEGA1UEChMaQWRvYmUgU3lzdGVtcyBJbmNvcnBvcmF0ZWQxHTAbBgNVBAsTFEFkb2JlIFRydXN0IFNlcnZpY2VzMRkwFwYDVQQDExBBZG9iZSBSb290IENBIEcyMB4XDTI0MTEyMDAwMDAwMFoXDTQ0MTExOTIzNTk1OVowdTELMAkGA1UEBhMCVVMxIzAhBgNVBAoTGkFkb2JlIFN5c3RlbXMgSW5jb3Jwb3JhdGVkMR0wGwYDVQQLExRBZG9iZSBUcnVzdCBTZXJ2aWNlczEiMCAGA1UEAxMZQWRvYmUgUHJvZHVjdCBTZXJ2aWNlcyBHNDCCAiIwDQYJKoZIhvcNAQEBBQADggIPADCCAgoCggIBAKxF+ICxWEi8zumCmeLCiU7as6RDEkgB/y6nFXeceMAQC5afyCzXeWyQJolO7Cmi4Nw5vtexdD3zVCwG7cUAn3kHrNaLNtkGS+qp7jCG3QpvASkdR+ujOpyWiOB/iBlyWR+8djFpjv3N323tR4Don9zeZ23+Gctlmd+D5KvI1zKQdWYHKtMxFJaRKXwrebOE4it4lVoPfY843ve9N7cuJlFyj2Vu3NLrr1RgEF+jdUAAEynThGKVVoUKG1abmuvmLq34LluAcRIME0TE8EuGMNvomTLAYI2c4MSXxhrJqThlWRo+MsXi+J5S/VYsm+hvd4Flwus+qF4cA+1QEDNMiidxPTMji3OXNAhsnFWNFFBt0RzTNSFsOQObDKTo90YBvEfT6JGqjwkr7hEfj87gcNVXkzoJSHEADJ4kNnJu5rgef2LvYp4dG1EpQskGMrZaq55gDcbKVm4rnY5M93lHsG4DEusf/3YihdPOdc0sDgmDDJiuQR6Glb1fK4Se0J9vomXSSW1p3ICv3TUpeKd/GRb3ChDFpMfHDv0UjfCRh9eeRBXFGCWkB6DUvSMz6uAHFpDuXiRyemRjjszJTWwx0p6HByMdtvRQhhA/JfgEcLEtUcb5MToCr+DwIO4ZaoNaktJvJOQHtG0TQbArhIg+/35UrTbVPbZg7pxmQnjTgbPvAgMBAAGjgfcwgfQwEgYDVR0TAQH/BAgwBgEB/wIBADA1BgNVHR8ELjAsMCqgKKAmhiRodHRwOi8vY3JsLmFkb2JlLmNvbS9hZG9iZXJvb3RnMi5jcmwwDgYDVR0PAQH/BAQDAgGGMFcGA1UdIARQME4wTAYJKoZIhvcvAQIDMD8wPQYIKwYBBQUHAgEWMWh0dHBzOi8vd3d3LmFkb2JlLmNvbS9taXNjL3BraS9wcm9kX3N2Y2VfY3BzLmh0bWwwHQYDVR0OBBYEFNCtQorwehQHJcaXwEOoI4XotS0jMB8GA1UdIwQYMBaAFKYc4W1UJEyoj0hyv26pjNXk7DHUMA0GCSqGSIb3DQEBCwUAA4ICAQCRlqhDU07OWLmha2+YptYEMFr3tEE9vhBLlnlN7oeKRW9S8UVEGJUNwGnw4HMy2IIeGGc6pn2h+s6ZV6xJ8CdjgMT8Zp5OtaNNe5O/qH37EETsDxN79lUDolWAnO9GT1Ln1fT25z7n+ilSPQ5EMUzKsTRslqJMVQeTOYWNYX80+eFeoT8/0s6NZLsxodw4l+pBRdyvI5g2g/vgxTYPQjdjBeqIIPBZfW5PI6WJwesJW65tXaqd1GNmkkDPlO3ZcS8qj0TONxpCfrDsjTm+OpX9k2Yvyljuz/GLssmw9hpwwOa9gSIOhVrR1hSCoWkrHQ1KWeaedPREi0AdlQ0NXClPmf7AxCZN8e4fkNovduPXyTnI43nN8PFMsUmySUxb9RtyWOH87KuJjBVkgX2PbIRvCxnQ6RrzElMbzKfw/oDRs8Psq/mm3OqVxGE8JqEH7yl3mLa7OQEk6bAMjqEoORkxudGTf0beyV72Iu5MlklIZ9L3J7XLIObmURgVhJfzmBfubLwfRGm1aaScfeyCL/38T0jKtKqYklDi1A3VbWPBSMn8sCcS7cOrbRLQtm1Y6qES+zE5Lvt/HnsVAeB1caQuxP+Fblc7a4xQb6sRmy6FmVWFbqwC1yzeXbSo9ki2+zd3OezgyfNmWgoEj3MwlbQXMNi9Vq8kA9Hf4rayLs28fqNmc2lnVHN0oWl0c3RUb2tlbnOBoWN2YWxZDlkwgg5VMAMCAQAwgg5MBgkqhkiG9w0BBwKggg49MIIOOQIBAzEPMA0GCWCGSAFlAwQCAQUAMIGBBgsqhkiG9w0BCRABBKByBHAwbgIBAQYJYIZIAYb9bAcBMDEwDQYJYIZIAWUDBAIBBQAEINWY5+gyquzAvoWVClyKK2M9GH93fCKjfqyb8OjuHxUPAhAoPG+3srrjZ/TE0rM2F56pGA8yMDI2MDUwOTA3MDEwN1oCCGEq6srNlGYaoIIL2jCCBR4wggMGoAMCAQICEAkZDcEsnIfbMv0KtVC97UswDQYJKoZIhvcNAQELBQAwaTELMAkGA1UEBhMCVVMxFzAVBgNVBAoTDkRpZ2lDZXJ0LCBJbmMuMUEwPwYDVQQDEzhEaWdpQ2VydCBUcnVzdGVkIEc0IFRpbWVTdGFtcGluZyBSU0E0MDk2IFNIQTI1NiAyMDI1IENBMTAeFw0yNTA2MTEwMDAwMDBaFw0zNjA5MTAyMzU5NTlaMF8xCzAJBgNVBAYTAlVTMRcwFQYDVQQKEw5EaWdpQ2VydCwgSW5jLjE3MDUGA1UEAxMuQWRvYmUgU0hBMjU2IEVDQzI1NiBUaW1lc3RhbXAgUmVzcG9uZGVyIDIwMjUgMTBZMBMGByqGSM49AgEGCCqGSM49AwEHA0IABDqZydXZSO9L84jXxrJwIPPeIspw7/k8jP1iwxb5ZO0PbiN3ijVubsdbzV38sK17hnS0u5hnGOEdH2EnsUwRqfKjggGVMIIBkTAMBgNVHRMBAf8EAjAAMB0GA1UdDgQWBBQgdqGjbnEVj3SVDa6kLKQ2P1gZFTAfBgNVHSMEGDAWgBTvb1NK6eQGfHrK4pBW9i/USezLTjAOBgNVHQ8BAf8EBAMCB4AwFgYDVR0lAQH/BAwwCgYIKwYBBQUHAwgwgZUGCCsGAQUFBwEBBIGIMIGFMCQGCCsGAQUFBzABhhhodHRwOi8vb2NzcC5kaWdpY2VydC5jb20wXQYIKwYBBQUHMAKGUWh0dHA6Ly9jYWNlcnRzLmRpZ2ljZXJ0LmNvbS9EaWdpQ2VydFRydXN0ZWRHNFRpbWVTdGFtcGluZ1JTQTQwOTZTSEEyNTYyMDI1Q0ExLmNydDBfBgNVHR8EWDBWMFSgUqBQhk5odHRwOi8vY3JsMy5kaWdpY2VydC5jb20vRGlnaUNlcnRUcnVzdGVkRzRUaW1lU3RhbXBpbmdSU0E0MDk2U0hBMjU2MjAyNUNBMS5jcmwwIAYDVR0gBBkwFzAIBgZngQwBBAIwCwYJYIZIAYb9bAcBMA0GCSqGSIb3DQEBCwUAA4ICAQBKnP4qzrnk6bae64mNkuAvegVfF4WZ752PCIF1U+QchK/h9ENe079SAU7s66f6zo6g2tgpDobFpEtS7bcOasJ4TK8F0TlFf8IAS0rjvc+wOyjxzW2aSOoNIfODENGzChf8QdYixJGuMkzxFYHsp3co+NrSO5m2QVWknOqOT92on1RqrKIp8qsJGLAiktTUJ0FEWePq7ElN+HTLvHOv6tY48dUwk17MXneImj3CL5BI5fZ57pmtt0oBgdY7ywz4RkbS/M1pZ6pQ3UuVODntDU8qkoLGIKYqCqzEZeZJxaKxk/OMS5Q7KssP04mPK9c7xJ4e9/rE8XCGcITeBzZ52wftAJV2wnc6kpnsky5vAjYbCoj0yDAacokbfmT7y9AT0wvOJUPfSLjLyPI5J0xp95cdi8bHRoYDAI5szZ7MZKad1Vav0M+HVwZqY0CuNNSRxZEXTKjRTMnB0bXhVCo+XmeWP/a0uqTbToNPYWwgxAoJrjZQlsiFLaF0vGcc3xKmSnJ5TraBThVPllFZqqZu/D7hAUiAdChY94w7A2lUep9YChxva/tuyiaC8qgx3nmSMaNudy3rnGKQRpIx7lOUaM2Z+jNurUELw4sX16oDovhlbVmJ5Ekg/RgGL0SJBfmYfQs3I1YD8K6BiB31vHNEcX71GhVfxqvzfcR8GkY+xFIeTDCCBrQwggScoAMCAQICEA3HrFcF/yGZLkBDIgw6SYYwDQYJKoZIhvcNAQELBQAwYjELMAkGA1UEBhMCVVMxFTATBgNVBAoTDERpZ2lDZXJ0IEluYzEZMBcGA1UECxMQd3d3LmRpZ2ljZXJ0LmNvbTEhMB8GA1UEAxMYRGlnaUNlcnQgVHJ1c3RlZCBSb290IEc0MB4XDTI1MDUwNzAwMDAwMFoXDTM4MDExNDIzNTk1OVowaTELMAkGA1UEBhMCVVMxFzAVBgNVBAoTDkRpZ2lDZXJ0LCBJbmMuMUEwPwYDVQQDEzhEaWdpQ2VydCBUcnVzdGVkIEc0IFRpbWVTdGFtcGluZyBSU0E0MDk2IFNIQTI1NiAyMDI1IENBMTCCAiIwDQYJKoZIhvcNAQEBBQADggIPADCCAgoCggIBALR4MdMKmEFyvjxGwBysddujRmh0tFEXnU2tjQ2UtZmWgyxU7UNqEY81FzJsQqr5G7A6c+Gh/qm8Xi4aPCOo2N8S9SLrC6Kbltqn7SWCWgzbNfiR+2fkHUiljNOqnIVD/gG3SYDEAd4dg2dDGpeZGKe+42DFUF0mR/vtLa4+gKPsYfwEu7EEbkC9+0F2w4QJLVSTEG8yAR2CQWIM1iI5PHg62IVwxKSpO0XaF9DPfNBKS7Zazch8NF5vp7eaZ2CVNxpqumzTCNSOxm+SAWSuIr21Qomb+zzQWKhxKTVVgtmUPAW35xUUFREmDrMxSNlr/NsJyUXzdtFUUt4aS4CEeIY8y9IaaGBpPNXKFifinT7zL2gdFpBP9qh8SdLnEut/GcalNeJQ55IuwnKCgs+nrpuQNfVmUB5KlCX3ZA4x5HHKS+rqBvKWxdCyQEEGcbLe1b8Aw4wJkhU1JrPsFfxW1gaou30yZ46t4Y9F20HHfIY4/6vHespYMQmUiote8ladjS/nJ0+k6MvqzfpzPDOy5y6gqztiT96Fv/9bH7mQyogxG9QEPHrPV6/7umw052AkyiLA6tQbZl1KhBtTasySkuJDpsZGKdlsjg4u70EwgWbVRSX1Wd4+zoFpp4Ra+MlKM2baoD6x0VR4RjSpWM8o5a6D8bpfm4CLKczsG7ZrIGNTAgMBAAGjggFdMIIBWTASBgNVHRMBAf8ECDAGAQH/AgEAMB0GA1UdDgQWBBTvb1NK6eQGfHrK4pBW9i/USezLTjAfBgNVHSMEGDAWgBTs1+OC0nFdZEzfLmc/57qYrhwPTzAOBgNVHQ8BAf8EBAMCAYYwEwYDVR0lBAwwCgYIKwYBBQUHAwgwdwYIKwYBBQUHAQEEazBpMCQGCCsGAQUFBzABhhhodHRwOi8vb2NzcC5kaWdpY2VydC5jb20wQQYIKwYBBQUHMAKGNWh0dHA6Ly9jYWNlcnRzLmRpZ2ljZXJ0LmNvbS9EaWdpQ2VydFRydXN0ZWRSb290RzQuY3J0MEMGA1UdHwQ8MDowOKA2oDSGMmh0dHA6Ly9jcmwzLmRpZ2ljZXJ0LmNvbS9EaWdpQ2VydFRydXN0ZWRSb290RzQuY3JsMCAGA1UdIAQZMBcwCAYGZ4EMAQQCMAsGCWCGSAGG/WwHATANBgkqhkiG9w0BAQsFAAOCAgEAF877FoAc/gc9EXZxML2+C8i1NKZ/zdCHxYgaMH9Pw5tcBnPw6O6FTGNpoV2V4wzSUGvI9NAzaoQk97frPBtIj+ZLzdp+yXdhOP4hCFATuNT+ReOPK0mCefSG+tXqGpYZ3essBS3q8nL2UwM+NMvEuBd/2vmdYxDCvwzJv2sRUoKEfJ+nN57mQfQXwcAEGCvRR2qKtntujB71WPYAgwPyWLKu6RnaID/B0ba2H3LUiwDRAXx1Neq9ydOal95CHfmTnM4I+ZI2rVQfjXQA1WSjjf4J2a7jLzWGNqNX+DF0SQzHU0pTi4dBwp9nEC8EAqoxW6q17r0z0noDjs6+BFo+z7bKSBwZXTRNivYuve3L2oiKNqetRHdqfMTCW/NmKLJ9M+MtucVGyOxiDf06VXxyKkOirv6o02OoXN4bFzK0vlNMsvhlqgF2puE6FndlENSmE+9JGYxOGLS/D284NHNboDGcmWXfwXRy4kbu4QFhOm0xJuF2EZAOk5eCkhSxZON3rGlHqhpB/8MluDezooIs8CVnrpHMiD2wL40mm53+/j7tFaxYKIqL0Q4ssd8xHZnIn/7GELH3IdvG2XlM9q7WP/UwgOkw/HQtyRN62JK4S1C8uw3PdBunvAZapsiI5YKdvlarEvf8EA+8hcpSM9LHJmyrxaFtoza2zNaQ9k+5t1wxggG/MIIBuwIBATB9MGkxCzAJBgNVBAYTAlVTMRcwFQYDVQQKEw5EaWdpQ2VydCwgSW5jLjFBMD8GA1UEAxM4RGlnaUNlcnQgVHJ1c3RlZCBHNCBUaW1lU3RhbXBpbmcgUlNBNDA5NiBTSEEyNTYgMjAyNSBDQTECEAkZDcEsnIfbMv0KtVC97UswDQYJYIZIAWUDBAIBBQCggdEwGgYJKoZIhvcNAQkDMQ0GCyqGSIb3DQEJEAEEMBwGCSqGSIb3DQEJBTEPFw0yNjA1MDkwNzAxMDdaMCsGCyqGSIb3DQEJEAIMMRwwGjAYMBYEFNeHunkpY5+4wS9KphZRdMvgpYDzMC8GCSqGSIb3DQEJBDEiBCCCBmscfGzNgpIQAKd9PSWyopG6k+IgZF5uxzR68/SViTA3BgsqhkiG9w0BCRACLzEoMCYwJDAiBCDTI6/iX909FvJvLyWefOSJ24bS2aqweyb1mDcIYIlWeDAKBggqhkjOPQQDAgRIMEYCIQCsiONJ8AuO6/LyvjZkNxMf/lxD4+D5nauecBOzf4ZT4wIhAMdUWR441SZP9heQTupGSyK8ply13pWTvvdmoPQdVIJzZXJWYWxzoWhvY3NwVmFsc4FZAtswggLXCgEAoIIC0DCCAswGCSsGAQUFBzABAQSCAr0wggK5MIGiohYEFNCtQorwehQHJcaXwEOoI4XotS0jGA8yMDI2MDUwNzE5MDUzOFowdzB1ME0wCQYFKw4DAhoFAAQUiu+yARBva2UVTcGjt1Gpi3OSyxYEFNCtQorwehQHJcaXwEOoI4XotS0jAhRJcyBrPnXfyWyvf1b/LSqtsEAH3YAAGA8yMDI2MDUwNzE5MDUzOFqgERgPMjAyNjA1MTQxOTA1MzhaMA0GCSqGSIb3DQEBCwUAA4ICAQBqdfN1Fmu+jjNbeGbes62vhNnMUzObyONdu8zB2VYFikwZJ4MeQJXAQmEL9/7l1t8cgBgjGLvfwMUDKWYfoglR9t8uJbibO4XkxR2O9F4La3hgxJLgbWM69bZM11ZnYUACn7on6v/PUjxWquQFBZmDexvkHClNB2GbSe5pexywyk5Mli5ANQtsy+VlIAj+gHAQxuzgA0AECQB6iqNkJ5/CISPe9i4bf1pRGX5ACoGoVUh3MgfGfGmAgMBk/MF8OmTYjRHxjlDQf5KCMeiu9PfCTzchfA8CkzHFud4JtJ7DWUWQ58+3kKnj5jwZ0sf1ftuhWBVMQlKNqLISJLiVBO4K25bzOnB4fkBDC6EccOTp32uink2luLcgk1n0XMQu0FQ1lYXvxpsCROm8JPiUn39wTdpn9YcvQ1qFmtGKl+ULZufuQpxYsPbj/X166ncyRNfvcXUcPIR5jV1PQ+4SlJ8YUz6KmFVoei55Py3tDFXX0OhjCqX/J2nq9/wGa3BZcN6rKWojaVQD8LTRDNSozrq8RUA4LvAFln0Lg19+0fTmVUnjqNzbrZ69wAVHX9HNxrxTJUNZvtfpfO9D8aRH5XScQjJUVLgfkVQqggNSC1RhTShGCdlNHCY9PiYpPfsJzUzxORSFjTaEuu2vjesKQwabibqJ0kVCSZJlcOm4OrzPrmNwYWRZEFAAAAAAAAAAAAAAAAAAAAAAAAAAAAAAAAAAAAAAAAAAAAAAAAAAAAAAAAAAAAAAAAAAAAAAAAAAAAAAAAAAAAAAAAAAAAAAAAAAAAAAAAAAAAAAAAAAAAAAAAAAAAAAAAAAAAAAAAAAAAAAAAAAAAAAAAAAAAAAAAAAAAAAAAAAAAAAAAAAAAAAAAAAAAAAAAAAAAAAAAAAAAAAAAAAAAAAAAAAAAAAAAAAAAAAAAAAAAAAAAAAAAAAAAAAAAAAAAAAAAAAAAAAAAAAAAAAAAAAAAAAAAAAAAAAAAAAAAAAAAAAAAAAAAAAAAAAAAAAAAAAAAAAAAAAAAAAAAAAAAAAAAAAAAAAAAAAAAAAAAAAAAAAAAAAAAAAAAAAAAAAAAAAAAAAAAAAAAAAAAAAAAAAAAAAAAAAAAAAAAAAAAAAAAAAAAAAAAAAAAAAAAAAAAAAAAAAAAAAAAAAAAAAAAAAAAAAAAAAAAAAAAAAAAAAAAAAAAAAAAAAAAAAAAAAAAAAAAAAAAAAAAAAAAAAAAAAAAAAAAAAAAAAAAAAAAAAAAAAAAAAAAAAAAAAAAAAAAAAAAAAAAAAAAAAAAAAAAAAAAAAAAAAAAAAAAAAAAAAAAAAAAAAAAAAAAAAAAAAAAAAAAAAAAAAAAAAAAAAAAAAAAAAAAAAAAAAAAAAAAAAAAAAAAAAAAAAAAAAAAAAAAAAAAAAAAAAAAAAAAAAAAAAAAAAAAAAAAAAAAAAAAAAAAAAAAAAAAAAAAAAAAAAAAAAAAAAAAAAAAAAAAAAAAAAAAAAAAAAAAAAAAAAAAAAAAAAAAAAAAAAAAAAAAAAAAAAAAAAAAAAAAAAAAAAAAAAAAAAAAAAAAAAAAAAAAAAAAAAAAAAAAAAAAAAAAAAAAAAAAAAAAAAAAAAAAAAAAAAAAAAAAAAAAAAAAAAAAAAAAAAAAAAAAAAAAAAAAAAAAAAAAAAAAAAAAAAAAAAAAAAAAAAAAAAAAAAAAAAAAAAAAAAAAAAAAAAAAAAAAAAAAAAAAAAAAAAAAAAAAAAAAAAAAAAAAAAAAAAAAAAAAAAAAAAAAAAAAAAAAAAAAAAAAAAAAAAAAAAAAAAAAAAAAAAAAAAAAAAAAAAAAAAAAAAAAAAAAAAAAAAAAAAAAAAAAAAAAAAAAAAAAAAAAAAAAAAAAAAAAAAAAAAAAAAAAAAAAAAAAAAAAAAAAAAAAAAAAAAAAAAAAAAAAAAAAAAAAAAAAAAAAAAAAAAAAAAAAAAAAAAAAAAAAAAAAAAAAAAAAAAAAAAAAAAAAAAAAAAAAAAAAAAAAAAAAAAAAAAAAAAAAAAAAAAAAAAAAAAAAAAAAAAAAAAAAAAAAAAAAAAAAAAAAAAAAAAAAAAAAAAAAAAAAAAAAAAAAAAAAAAAAAAAAAAAAAAAAAAAAAAAAAAAAAAAAAAAAAAAAAAAAAAAAAAAAAAAAAAAAAAAAAAAAAAAAAAAAAAAAAAAAAAAAAAAAAAAAAAAAAAAAAAAAAAAAAAAAAAAAAAAAAAAAAAAAAAAAAAAAAAAAAAAAAAAAAAAAAAAAAAAAAAAAAAAAAAAAAAAAAAAAAAAAAAAAAAAAAAAAAAAAAAAAAAAAAAAAAAAAAAAAAAAAAAAAAAAAAAAAAAAAAAAAAAAAAAAAAAAAAAAAAAAAAAAAAAAAAAAAAAAAAAAAAAAAAAAAAAAAAAAAAAAAAAAAAAAAAAAAAAAAAAAAAAAAAAAAAAAAAAAAAAAAAAAAAAAAAAAAAAAAAAAAAAAAAAAAAAAAAAAAAAAAAAAAAAAAAAAAAAAAAAAAAAAAAAAAAAAAAAAAAAAAAAAAAAAAAAAAAAAAAAAAAAAAAAAAAAAAAAAAAAAAAAAAAAAAAAAAAAAAAAAAAAAAAAAAAAAAAAAAAAAAAAAAAAAAAAAAAAAAAAAAAAAAAAAAAAAAAAAAAAAAAAAAAAAAAAAAAAAAAAAAAAAAAAAAAAAAAAAAAAAAAAAAAAAAAAAAAAAAAAAAAAAAAAAAAAAAAAAAAAAAAAAAAAAAAAAAAAAAAAAAAAAAAAAAAAAAAAAAAAAAAAAAAAAAAAAAAAAAAAAAAAAAAAAAAAAAAAAAAAAAAAAAAAAAAAAAAAAAAAAAAAAAAAAAAAAAAAAAAAAAAAAAAAAAAAAAAAAAAAAAAAAAAAAAAAAAAAAAAAAAAAAAAAAAAAAAAAAAAAAAAAAAAAAAAAAAAAAAAAAAAAAAAAAAAAAAAAAAAAAAAAAAAAAAAAAAAAAAAAAAAAAAAAAAAAAAAAAAAAAAAAAAAAAAAAAAAAAAAAAAAAAAAAAAAAAAAAAAAAAAAAAAAAAAAAAAAAAAAAAAAAAAAAAAAAAAAAAAAAAAAAAAAAAAAAAAAAAAAAAAAAAAAAAAAAAAAAAAAAAAAAAAAAAAAAAAAAAAAAAAAAAAAAAAAAAAAAAAAAAAAAAAAAAAAAAAAAAAAAAAAAAAAAAAAAAAAAAAAAAAAAAAAAAAAAAAAAAAAAAAAAAAAAAAAAAAAAAAAAAAAAAAAAAAAAAAAAAAAAAAAAAAAAAAAAAAAAAAAAAAAAAAAAAAAAAAAAAAAAAAAAAAAAAAAAAAAAAAAAAAAAAAAAAAAAAAAAAAAAAAAAAAAAAAAAAAAAAAAAAAAAAAAAAAAAAAAAAAAAAAAAAAAAAAAAAAAAAAAAAAAAAAAAAAAAAAAAAAAAAAAAAAAAAAAAAAAAAAAAAAAAAAAAAAAAAAAAAAAAAAAAAAAAAAAAAAAAAAAAAAAAAAAAAAAAAAAAAAAAAAAAAAAAAAAAAAAAAAAAAAAAAAAAAAAAAAAAAAAAAAAAAAAAAAAAAAAAAAAAAAAAAAAAAAAAAAAAAAAAAAAAAAAAAAAAAAAAAAAAAAAAAAAAAAAAAAAAAAAAAAAAAAAAAAAAAAAAAAAAAAAAAAAAAAAAAAAAAAAAAAAAAAAAAAAAAAAAAAAAAAAAAAAAAAAAAAAAAAAAAAAAAAAAAAAAAAAAAAAAAAAAAAAAAAAAAAAAAAAAAAAAAAAAAAAAAAAAAAAAAAAAAAAAAAAAAAAAAAAAAAAAAAAAAAAAAAAAAAAAAAAAAAAAAAAAAAAAAAAAAAAAAAAAAAAAAAAAAAAAAAAAAAAAAAAAAAAAAAAAAAAAAAAAAAAAAAAAAAAAAAAAAAAAAAAAAAAAAAAAAAAAAAAAAAAAAAAAAAAAAAAAAAAAAAAAAAAAAAAAAAAAAAAAAAAAAAAAAAAAAAAAAAAAAAAAAAAAAAAAAAAAAAAAAAAAAAAAAAAAAAAAAAAAAAAAAAAAAAAAAAAAAAAAAAAAAAAAAAAAAAAAAAAAAAAAAAAAAAAAAAAAAAAAAAAAAAAAAAAAAAAAAAAAAAAAAAAAAAAAAAAAAAAAAAAAAAAAAAAAAAAAAAAAAAAAAAAAAAAAAAAAAAAAAAAAAAAAAAAAAAAAAAAAAAAAAAAAAAAAAAAAAAAAAAAAAAAAAAAAAAAAAAAAAAAAAAAAAAAAAAAAAAAAAAAAAAAAAAAAAAAAAAAAAAAAAAAAAAAAAAAAAAAAAAAAAAAAAAAAAAAAAAAAAAAAAAAAAAAAAAAAAAAAAAAAAAAAAAAAAAAAAAAAAAAAAAAAAAAAAAAAAAAAAAAAAAAAAAAAAAAAAAAAAAAAAAAAAAAAAAAAAAAAAAAAAAAAAAAAAAAAAAAAAAAAAAAAAAAAAAAAAAAAAAAAAAAAAAAAAAAAAAAAAAAAAAAAAAAAAAAAAAAAAAAAAAAAAAAAAAAAAAAAAAAAAAAAAAAAAAAAAAAAAAAAAAAAAAAAAAAAAAAAAAAAAAAAAAAAAAAAAAAAAAAAAAAAAAAAAAAAAAAAAAAAAAAAAAAAAAAAAAAAAAAAAAAAAAAAAAAAAAAAAAAAAAAAAAAAAAAAAAAAAAAAAAAAAAAAAAAAAAAAAAAAAAAAAAAAAAAAAAAAAAAAAAAAAAAAAAAAAAAAAAAAAAAAAAAAAAAAAAAAAAAAAAAAAAAAAAAAAAAAAAAAAAAAAAAAAAAAAAAAAAAAAAAAAAAAAAAAAAAAAAAAAAAAAAAAAAAAAAAAAAAAAAAAAAAAAAAAAAAAAAAAAAAAAAAAAAAAAAAAAAAAAAAAAAAAAAAAAAAAAAAAAAAAAAAAAAAAAAAAAAAAAAAAAAAAAAAAAAAAAAAAAAAAAAAAAAAAAAAAAAAAAAAAAAAAAAAAAAAAAAAAAAAAAAAAAAAAAAAAAAAAAAAAAAAAAAAAAAAAAAAAAAAAAAAAAAAAAAAAAAAAAAAAAAAAAAAAAAAAAAAAAAAAAAAAAAAAAAAAAAAAAAAAAAAAAAAAAAAAAAAAAAAAAAAAAAAAAAAAAAAAAAAAAAAAAAAAAAAAAAAAAAAAAAAAAAAAAAAAAAAAAAAAAAAAAAAAAAAAAAAAAAAAAAAAAAAAAAAAAAAAAAAAAAAAAAAAAAAAAAAAAAAAAAAAAAAAAAAAAAAAAAAAAAAAAAAAAAAAAAAAAAAAAAAAAAAAAAAAAAAAAAAAAAAAAAAAAAAAAAAAAAAAAAAAAAAAAAAAAAAAAAAAAAAAAAAAAAAAAAAAAAAAAAAAAAAAAAAAAAAAAAAAAAAAAAAAAAAAAAAAAAAAAAAAAAAAAAAAAAAAAAAAAAAAAAAAAAAAAAAAAAAAAAAAAAAAAAAAAAAAAAAAAAAAAAAAAAAAAAAAAAAAAAAAAAAAAAAAAAAAAAAAAAAAAAAAAAAAAAAAAAAAAAAAAAAAAAAAAAAAAAAAAAAAAAAAAAAAAAAAAAAAAAAAAAAAAAAAAAAAAAAAAAAAAAAAAAAAAAAAAAAAAAAAAAAAAAAAAAAAAAAAAAAAAAAAAAAAAAAAAAAAAAAAAAAAAAAAAAAAAAAAAAAAAAAAAAAAAAAAAAAAAAAAAAAAAAAAAAAAAAAAAAAAAAAAAAAAAAAAAAAAAAAAAAAAAAAAAAAAAAAAAAAAAAAAAAAAAAAAAAAAAAAAAAAAAAAAAAAAAAAAAAAAAAAAAAAAAAAAAAAAAAAAAAAAAAAAAAAAAAAAAAAAAAAAAAAAAAAAAAAAAAAAAAAAAAAAAAAAAAAAAAAAAAAAAAAAAAAAAAAAAAAAAAAAAAAAAAAAAAAAAAAAAAAAAAAAAAAAAAAAAAAAAAAAAAAAAAAAAAAAAAAAAAAAAAAAAAAAAAAAAAAAAAAAAAAAAAAAAAAAAAAAAAAAAAAAAAAAAAAAAAAAAAAAAAAAAAAAAAAAAAAAAAAAAAAAAAAAAAAAAAAAAAAAAAAAAAAAAAAAAAAAAAAAAAAAAAAAAAAAAAAAAAAAAAAAAAAAAAAAAAAAAAAAAAAAAAAAAAAAAAAAAAAAAAAAAAAAAAAAAAAAAAAAAAAAAAAAAAAAAAAAAAAAAAAAAAAAAAAAAAAAAAAAAAAAAAAAAAAAAAAAAAAAAAAAAAAAAAAAAAAAAAAAAAAAAAAAAAAAAAAAAAAAAAAAAAAAAAAAAAAAAAAAAAAAAAAAAAAAAAAAAAAAAAAAAAAAAAAAAAAAAAAAAAAAAAAAAAAAAAAAAAAAAAAAAAAAAAAAAAAAAAD2WQEAbVcwNsM8MxtcyEumfd/34Xbve1HmfjO/1V23JKknT2QC389KsgIK2uvuCYu2AVcnVUESfOWaupudm5Fhxy+vCjBYuZVQL5vBzUeewkSoOmsXT3j65+v+eMz8GlhDx5LXLHRoCYxY3LCzqCcyLQkvke+KrUDxyvgls3QjPtFlUlmG3KUkeAldFscsqigCH4SaG3aqYBP4R+Uh8KzX2QLeA3jQqT3xcMxetJqswqwovjIfLs0gB4sdTkC+Khnn0keG6PHTot2ojzBnIcCxFM7cG0AfZ0dGUZNfNc6c0WGSJbWTWcUiBts4aHR0JzjS4ZgF0+eOuruMCal9TXxbwekQQw==</c2pa:manifest></metadata>
  <defs>
    <style>
      .cls-1 {
        fill: #a48a7b;
      }

      .cls-2 {
        fill: #bce1e2;
      }

      .cls-3 {
        fill: #054959;
      }
    </style>
  </defs>
  <g id="Ebene_1-2" data-name="Ebene 1">
    <g>
      <g>
        <path class="cls-2" d="M45.41.06c-8.46.64-16.63,7.71-17.82,16.23-2.27,16.31,12.88,33.88,25.32,42.63.63.44,5.02,3.49,5.34,3.46.46-.04.51-4.07.36-4.54-.15-.49-7.3-4.94-8.44-5.84-8.28-6.52-17.61-17.8-18.68-28.64C29.96,7.91,44.26-.25,57.53,6.99c2.57,1.4,4.61,3.62,6.92,5.19,1.73-.97,3.02-2.69,4.76-3.9,13.3-9.18,30.03-1.53,28.06,15.36-1.39,11.91-11.51,22.93-20.7,29.79-.82.61-6.16,3.89-6.28,4.26-.11.34-.06,4.6.22,4.69,13.08-7.88,28.55-23.03,30.66-38.88,2.46-18.52-15.55-28.98-31.38-20.41-1.96,1.06-3.56,2.65-5.48,3.75C59.14,2.39,52.36-.46,45.41.06ZM47,7.85c-6.01.36-11.31,5.54-12.05,11.47-1.68,13.5,13.66,28.35,24.31,34.7.28-.09.31-3.25.22-3.53-.09-.27-3.94-2.76-4.54-3.25-7.73-6.21-22.78-22.1-14.64-32.53,6.49-8.32,14.38-1.38,19.98,2.81.46.35,2.23.99,2.38,1.23.62,1.02-.12,9.56.07,11.32l-12.12-11.54c-.78-.09-1.32.07-1.66.79.03.23-.04.51,0,.72.21,1.03,12.06,11.16,13.56,12.84l.14,9.81-12.05-11.32c-1.02-.49-1.95.66-1.66,1.66l13.85,13.13-.72,25.82c1.11,2.12,3.97,2,4.76-.29l-.58-25.68c1.44-1.85,13.51-12.2,13.71-13.27.14-.75-.57-1.6-1.37-1.51l-12.48,11.76.14-9.95,13.42-12.7c.48-1.18-.29-2.04-1.51-1.8l-12.12,11.54.07-11.32c3.07-1.08,4.81-3.94,7.57-5.55,8.7-5.07,17.85-.4,16.95,10.03-.43,5.06-4.33,11.41-7.5,15.29-.6.73-4.25,4.25-4.33,4.62-.35,1.53,1.16,2.49,2.52,1.8,3.45-1.74,10.48-13.53,11.61-17.38,4.54-15.41-9.16-25.31-22.29-16.09-2.95,2.07-4.83,5.9-8.94,3.17-5.18-3.44-7.2-7.22-14.71-6.78Z"/>
        <path class="cls-2" d="M45.41.06c6.94-.52,13.73,2.33,18.9,6.78,1.92-1.1,3.52-2.69,5.48-3.75,15.82-8.57,33.84,1.89,31.38,20.41-2.1,15.85-17.58,31-30.66,38.88-.27-.09-.32-4.35-.22-4.69.11-.36,5.46-3.65,6.28-4.26,9.2-6.86,19.31-17.88,20.7-29.79,1.97-16.9-14.76-24.54-28.06-15.36-1.74,1.2-3.03,2.92-4.76,3.9-2.31-1.58-4.35-3.79-6.92-5.19-13.27-7.23-27.57.92-26.04,16.37,1.07,10.84,10.4,22.12,18.68,28.64,1.14.9,8.29,5.35,8.44,5.84.15.47.1,4.5-.36,4.54-.32.03-4.71-3.02-5.34-3.46-12.43-8.75-27.59-26.32-25.32-42.63C28.78,7.77,36.96.7,45.41.06Z"/>
        <path class="cls-2" d="M47,7.85c7.51-.44,9.54,3.34,14.71,6.78,4.11,2.73,6-1.1,8.94-3.17,13.13-9.22,26.83.67,22.29,16.09-1.14,3.85-8.16,15.64-11.61,17.38-1.36.69-2.87-.28-2.52-1.8.08-.36,3.73-3.88,4.33-4.62,3.18-3.88,7.07-10.23,7.5-15.29.9-10.43-8.25-15.1-16.95-10.03-2.76,1.61-4.5,4.47-7.57,5.55l-.07,11.32,12.12-11.54c1.23-.24,2,.62,1.51,1.8l-13.42,12.7-.14,9.95,12.48-11.76c.8-.09,1.51.76,1.37,1.51-.2,1.08-12.27,11.42-13.71,13.27l.58,25.68c-.79,2.29-3.65,2.41-4.76.29l.72-25.82-13.85-13.13c-.29-1,.63-2.15,1.66-1.66l12.05,11.32-.14-9.81c-1.5-1.68-13.35-11.81-13.56-12.84-.04-.21.03-.5,0-.72.34-.72.88-.88,1.66-.79l12.12,11.54c-.19-1.77.55-10.3-.07-11.32-.15-.24-1.92-.88-2.38-1.23-5.6-4.19-13.49-11.13-19.98-2.81-8.14,10.43,6.92,26.33,14.64,32.53.6.48,4.46,2.98,4.54,3.25.09.28.06,3.44-.22,3.53-10.65-6.35-25.99-21.19-24.31-34.7.74-5.93,6.04-11.11,12.05-11.47Z"/>
      </g>
      <g>
        <path class="cls-1" d="M1.21,130.38v-9.06c0-1.66,1.16-2.76,2.92-2.76s2.92,1.1,2.92,2.76v1.7h-1.48v-1.66c0-.86-.58-1.44-1.44-1.44s-1.44.58-1.44,1.44v8.88c0,.86.58,1.44,1.46,1.44s1.46-.58,1.46-1.44v-3.92h-1.48v-1.28h2.92v7.76h-1.04v-.82l.06-.18h-.22l-.04.18c-.32.66-1.08,1.06-2.02,1.06-1.56,0-2.58-1.06-2.58-2.66Z"/>
        <path class="cls-1" d="M11.03,130.26v-8.94c0-1.66,1.16-2.76,2.92-2.76s2.92,1.1,2.92,2.76v8.94c0,1.68-1.16,2.78-2.92,2.78s-2.92-1.1-2.92-2.78ZM15.39,130.24v-8.88c0-.86-.58-1.44-1.44-1.44s-1.44.58-1.44,1.44v8.88c0,.86.58,1.44,1.44,1.44s1.44-.58,1.44-1.44Z"/>
        <path class="cls-1" d="M20.89,118.8h1.48v12.64h2.78v1.36h-4.26v-14Z"/>
        <path class="cls-1" d="M28.43,118.8h3.02c1.7,0,2.84,1.08,2.84,2.72v8.56c0,1.64-1.14,2.72-2.84,2.72h-3.02v-14ZM29.91,120.16v11.28h1.46c.86,0,1.44-.58,1.44-1.44v-8.4c0-.86-.58-1.44-1.44-1.44h-1.46Z"/>
        <path class="cls-1" d="M43.49,118.8h3.02c1.7,0,2.84,1.08,2.84,2.72v3.1c0,1.64-1.14,2.72-2.84,2.72h-1.54v5.46h-1.48v-14ZM44.97,120.16v5.82h1.46c.86,0,1.44-.58,1.44-1.44v-2.94c0-.86-.58-1.44-1.44-1.44h-1.46Z"/>
        <path class="cls-1" d="M53.85,118.8h2.44l2.16,14h-1.58l-.54-3.84h-2.6l-.52,3.84h-1.5l2.14-14ZM53.91,127.68h2.24l-.88-6.34v-1.08h-.46v1.08l-.9,6.34Z"/>
        <path class="cls-1" d="M61.65,118.8h3.04c1.7,0,2.82,1.08,2.82,2.68v2.8c0,1.16-.58,2.04-1.56,2.44l1.78,6.08h-1.52l-1.66-5.86h-1.42v5.86h-1.48v-14ZM63.13,120.16v5.48h1.46c.86,0,1.44-.58,1.44-1.44v-2.6c0-.86-.58-1.44-1.44-1.44h-1.46Z"/>
        <path class="cls-1" d="M72.27,120.16h-1.84v-1.36h5.16v1.36h-1.84v12.64h-1.48v-12.64Z"/>
        <path class="cls-1" d="M78.93,118.8h2.18l2.48,10.26.12,1.06h.4l-.12-1.06v-10.26h1.48v14h-2.18l-2.48-10.26-.12-1.06h-.4l.12,1.06v10.26h-1.48v-14Z"/>
        <path class="cls-1" d="M89.55,118.8h4.44v1.36h-2.96v4.88h2.68v1.32h-2.68v5.08h2.96v1.36h-4.44v-14Z"/>
        <path class="cls-1" d="M97.67,118.8h3.04c1.7,0,2.82,1.08,2.82,2.68v2.8c0,1.16-.58,2.04-1.56,2.44l1.78,6.08h-1.52l-1.66-5.86h-1.42v5.86h-1.48v-14ZM99.15,120.16v5.48h1.46c.86,0,1.44-.58,1.44-1.44v-2.6c0-.86-.58-1.44-1.44-1.44h-1.46Z"/>
      </g>
      <g>
        <path class="cls-3" d="M13.59,85.46h-6.28v10.94h5.08v4.81h-5.08v9.17H1.54v-9.17H0v-4.81h1.54v-15.75h12.05v4.81Z"/>
        <path class="cls-3" d="M29,110.38h-5.24l-.62-4.81h-3.85l-.62,4.81h-5.2l4.47-29.73h6.58l4.47,29.73ZM22.49,100.75l-1.27-11.36-1.35,11.36h2.62Z"/>
        <path class="cls-3" d="M37.59,110.38h-5.78v-29.73h5.78v29.73Z"/>
        <path class="cls-3" d="M56.57,89.89c0,5.74-2.73,8.4-4.04,9.28.89,1.04,2.12,2.77,2.89,4.74.89,2.23,1.04,4.43,1.04,6.47h-5.78c0-1.46-.15-2.97-.77-4.51-.65-1.62-1.54-2.85-2.2-3.47v7.97h-5.78v-29.73h4.54c5.51,0,10.09,2.93,10.09,9.24ZM50.8,89.93c0-2.81-1.12-4.39-3.08-4.39v10.59c.89,0,3.08-2.23,3.08-6.2Z"/>
        <path class="cls-3" d="M75.14,100.48c0,7.93-5.28,9.9-10.25,9.9h-4.62v-29.73h4.62c5.32,0,9.32,2.85,9.32,7.51,0,2.97-1.35,4.51-2,5.16,1.08.85,2.93,3.47,2.93,7.16ZM68.51,88.12c0-1.5-.89-2.66-2.46-2.66v5.35c1.46,0,2.46-1.12,2.46-2.7ZM69.24,100.48c0-2.54-1.31-4.39-1.85-4.81-.35.08-1.04.15-1.35.15v9.74c1.93,0,3.2-1.62,3.2-5.08Z"/>
        <path class="cls-3" d="M94.04,101.87c0,5.82-3.81,8.7-7.63,8.7s-7.59-2.89-7.59-8.7v-21.22h5.78v22.11c0,1.77.81,3,1.81,3s1.85-1.23,1.85-3v-22.11h5.78v21.22ZM85.11,79.22h-4.08v-5.78h4.08v5.78ZM91.81,79.22h-4.08v-5.78h4.08v5.78Z"/>
        <path class="cls-3" d="M114.19,110.38h-2.7l-7.47-14.48v14.48h-5.51v-29.73h2.7l7.47,14.48v-14.48h5.51v29.73Z"/>
        <path class="cls-3" d="M133.44,95.52c0,12.44-4.85,14.87-10.75,14.87h-4.04v-29.73h4.04c5.89,0,10.75,2.43,10.75,14.87ZM127.66,95.52c0-7.63-1.42-10.05-3.23-10.05v20.1c1.81,0,3.23-2.43,3.23-10.05Z"/>
        <path class="cls-3" d="M149.46,110.38h-12.05v-9.17h-1.54v-4.81h1.54v-15.75h12.05v4.81h-6.28v10.94h5.08v4.81h-5.08v4.35h6.28v4.81Z"/>
        <path class="cls-3" d="M166.33,85.46h-4.47v24.92h-5.78v-24.92h-4.43v-4.81h14.67v4.81Z"/>
      </g>
      <g>
        <path class="cls-2" d="M8.22,58.39c0,1.53-.29,2.96-2.08,6.16-1.56,2.76-1.82,4.08-1.82,5.69h3.87v3.25H.68c-.39-3.8.23-7.15,2.03-10.45,1.56-2.89,1.79-3.74,1.79-4.94,0-1.07-.73-1.61-1.48-1.61-.94,0-1.51.36-1.51.36l-1.38-2.83s1.12-.73,2.99-.73c3.2,0,5.1,2.37,5.1,5.1Z"/>
        <path class="cls-2" d="M20.83,63.46c0,8.63-2.5,10.17-5.2,10.17s-5.2-1.53-5.2-10.17,2.5-10.17,5.2-10.17,5.2,1.53,5.2,10.17ZM16.93,63.46c0-5.23-.47-6.92-1.3-6.92s-1.3,1.69-1.3,6.92.47,6.92,1.3,6.92,1.3-1.69,1.3-6.92Z"/>
        <path class="cls-2" d="M30.47,58.39c0,1.53-.29,2.96-2.08,6.16-1.56,2.76-1.82,4.08-1.82,5.69h3.87v3.25h-7.51c-.39-3.8.23-7.15,2.03-10.45,1.56-2.89,1.79-3.74,1.79-4.94,0-1.07-.73-1.61-1.48-1.61-.94,0-1.51.36-1.51.36l-1.38-2.83s1.12-.73,2.99-.73c3.2,0,5.1,2.37,5.1,5.1Z"/>
        <path class="cls-2" d="M42.43,66.63c0,5.82-2.91,6.99-4.97,6.99s-4.91-1.38-4.91-8.71c0-11.36,4.6-11.62,6.84-11.62.94,0,1.61.18,1.61.18v3.2c-.47-.1-.81-.16-1.43-.16-1.79,0-2.63,1.79-2.81,3.59.23-.1.49-.16.73-.16,2.11,0,4.94,1.14,4.94,6.68ZM38.58,66.71c0-2.83-.52-3.51-1.12-3.51-.34,0-.62.21-.83.57-.03.26-.03.52-.03.83,0,4.78.31,5.77.91,5.77s1.07-.83,1.07-3.67Z"/>
      </g>
    </g>
  </g>
</svg>