<?xml version="1.0" encoding="UTF-8"?> <svg xmlns="http://www.w3.org/2000/svg" id="Ebene_2" viewBox="0 0 311.17 52.31"><defs></defs><g id="Ebene_1-2"><path class="cls-1" d="m77.29,24.19h3.95c.79,4.49,3.36,6.61,7.55,6.61,3.75,0,5.97-1.68,5.97-4.25,0-2.91-3.31-3.8-7.06-4.74-4.69-1.23-10.02-2.47-10.02-8,0-4.1,3.7-7.26,9.68-7.26s10.37,3.21,11.3,9.08h-3.95c-.79-4.1-3.41-5.97-7.31-5.97-3.55,0-5.63,1.53-5.63,3.85,0,2.67,2.91,3.65,6.37,4.59,4.84,1.33,10.66,2.52,10.66,8,0,4.39-3.85,7.75-9.97,7.75s-10.66-3.16-11.55-9.67Z"></path><path class="cls-1" d="m101.67,26.85c0-5.18,5.43-6.81,10.66-8.44,3.8-1.28,6.32-2.42,6.32-4.79s-2.17-3.9-5.58-3.9c-3.7,0-6.17,2.17-6.86,6.02h-3.95c.74-5.53,4.94-9.18,10.96-9.18s9.63,2.91,9.63,8.15v18.61h-4.15v-3.41c-1.97,2.42-5.08,3.85-8.64,3.85-5.13,0-8.39-2.71-8.39-6.91Zm9.33,3.9c3.01,0,6.07-1.33,7.7-3.55v-6.56l.05-2.22c-1.23,1.23-3.21,2.02-5.43,2.81-3.9,1.33-7.5,2.37-7.5,5.68,0,2.47,2.22,3.85,5.18,3.85Z"></path><path class="cls-1" d="m126.95,7.11h4.25v3.6c1.78-2.47,4.54-4.05,7.85-4.05,3.6,0,6.32,1.63,7.7,4.34,1.83-2.67,4.79-4.34,8.49-4.34,5.43,0,9.03,3.5,9.03,8.84v17.82h-4.25v-17.28c0-3.9-2.42-6.17-6.07-6.17-2.81,0-5.04,1.33-6.47,3.36.15.69.25,1.48.25,2.27v17.82h-4.25v-17.28c0-3.9-2.32-6.17-5.82-6.17-2.81,0-5.13,1.48-6.47,3.65v19.79h-4.25V7.11Z"></path><path class="cls-1" d="m167.67,26.85c0-5.18,5.43-6.81,10.66-8.44,3.8-1.28,6.32-2.42,6.32-4.79s-2.17-3.9-5.58-3.9c-3.7,0-6.17,2.17-6.86,6.02h-3.95c.74-5.53,4.94-9.18,10.96-9.18s9.63,2.91,9.63,8.15v18.61h-4.15v-3.41c-1.97,2.42-5.08,3.85-8.64,3.85-5.13,0-8.39-2.71-8.39-6.91Zm9.33,3.9c3.01,0,6.07-1.33,7.7-3.55v-6.56l.05-2.22c-1.23,1.23-3.21,2.02-5.43,2.81-3.9,1.33-7.5,2.37-7.5,5.68,0,2.47,2.22,3.85,5.18,3.85Z"></path><path class="cls-1" d="m192.95,7.11h4.25v4.29c1.63-3.01,4.34-4.64,7.6-4.64.3,0,.49,0,.79.05v3.95c-.54-.1-.99-.15-1.53-.15-2.86,0-5.53,1.38-6.86,4v18.71h-4.25V7.11Z"></path><path class="cls-1" d="m208.89,0h4.34v4.54h-4.34V0Zm.05,7.11h4.2v26.21h-4.2V7.11Z"></path><path class="cls-1" d="m222.56,28.19V10.37h-6.12v-3.26h6.12V1.88h4.2v5.23h7.75v3.26h-7.75v17.03c0,1.92.84,2.67,3.01,2.67h4.74v3.26h-6.57c-3.7,0-5.38-1.78-5.38-5.13Z"></path><path class="cls-1" d="m236.88,26.85c0-5.18,5.43-6.81,10.66-8.44,3.8-1.28,6.32-2.42,6.32-4.79s-2.17-3.9-5.58-3.9c-3.7,0-6.17,2.17-6.86,6.02h-3.95c.74-5.53,4.94-9.18,10.96-9.18s9.62,2.91,9.62,8.15v18.61h-4.15v-3.41c-1.97,2.42-5.08,3.85-8.64,3.85-5.13,0-8.39-2.71-8.39-6.91Zm9.33,3.9c3.01,0,6.07-1.33,7.7-3.55v-6.56l.05-2.22c-1.23,1.23-3.21,2.02-5.43,2.81-3.9,1.33-7.5,2.37-7.5,5.68,0,2.47,2.22,3.85,5.18,3.85Z"></path><path class="cls-1" d="m262.15,7.11h4.25v3.55c1.83-2.47,4.74-4,8.14-4,5.53,0,9.18,3.5,9.18,8.84v17.82h-4.25v-17.13c0-4-2.47-6.32-6.27-6.32-2.91,0-5.43,1.48-6.81,3.7v19.75h-4.25V7.11Z"></path><path class="cls-1" d="m287.23,20.24c0-8.74,4.94-13.72,11.95-13.72s12,4.99,12,13.72-4.94,13.67-12,13.67-11.95-4.99-11.95-13.67Zm19.7,0c0-6.81-3.21-10.46-7.75-10.46s-7.75,3.65-7.75,10.42,3.21,10.46,7.75,10.46,7.75-3.65,7.75-10.42Z"></path><path class="cls-2" d="m78.11,42.86h2.23c2.07,0,3.29,1.03,3.29,2.65,0,1.53-1.13,2.76-3.19,2.76h-.68v2.13h-1.65v-7.55Zm2.4,3.95c.85,0,1.45-.45,1.45-1.23s-.6-1.2-1.46-1.2h-.74v2.44h.75Z"></path><path class="cls-2" d="m86.23,42.86h4.62v1.51h-2.97v1.89h2.79v1.42h-2.79v2.73h-1.65v-7.55Z"></path><path class="cls-2" d="m93.66,42.86h1.65v6.05h3.13v1.5h-4.77v-7.55Z"></path><path class="cls-2" d="m100.97,42.86h4.73v1.49h-3.09v1.57h2.82v1.37h-2.82v1.65h3.09v1.48h-4.73v-7.55Z"></path><path class="cls-2" d="m112.02,49.07c.45,0,.77-.08,1.09-.23v-2.5h1.51v3.47c-.73.46-1.56.77-2.62.77-2.09,0-3.9-1.53-3.9-3.94s1.81-3.96,3.92-3.96c.91,0,1.7.23,2.31.58v1.63c-.66-.47-1.42-.66-2.11-.66-1.45,0-2.44,1.04-2.44,2.44s.97,2.4,2.26,2.4Z"></path><path class="cls-2" d="m117.48,42.86h4.73v1.49h-3.09v1.57h2.82v1.37h-2.82v1.65h3.09v1.48h-4.73v-7.55Z"></path><path class="cls-2" d="m130.29,50.41h-1.57l1.08-7.55h1.95l1.59,5.05h.02l1.56-5.05h1.9l1.08,7.55h-1.58l-.64-5.28h-.04l-1.64,5.28h-1.41l-1.63-5.26h-.03l-.66,5.26Z"></path><path class="cls-2" d="m140.63,42.86h1.65v7.55h-1.65v-7.55Z"></path><path class="cls-2" d="m147.03,44.37h-2.22v-1.51h6.06v1.51h-2.21v6.04h-1.64v-6.04Z"></path><path class="cls-2" d="m161.91,47.38h-3.09v3.02h-1.65v-7.55h1.65v3.02h3.09v-3.02h1.64v7.55h-1.64v-3.02Z"></path><path class="cls-2" d="m166.72,42.86h4.73v1.49h-3.08v1.57h2.82v1.37h-2.82v1.65h3.08v1.48h-4.73v-7.55Z"></path><path class="cls-2" d="m174.36,42.86h2.39c1.82,0,2.95.88,2.95,2.46,0,.9-.48,1.92-1.91,2.3l2.28,2.79h-1.98l-2-2.65h-.07v2.65h-1.65v-7.55Zm2.32,3.62c.89,0,1.37-.4,1.37-1.06s-.52-1.05-1.34-1.05h-.7v2.11h.67Z"></path><path class="cls-2" d="m184.43,48.91h3.16v1.5h-5.68l3.43-6.04h-3.12v-1.51h5.65l-3.44,6.05Z"></path><path class="cls-2" d="m194.3,47.43v-4.57h1.65v4.58c0,1.03.55,1.63,1.46,1.63s1.51-.6,1.51-1.64v-4.57h1.66v4.57c0,1.85-1.21,3.15-3.17,3.15s-3.11-1.29-3.11-3.15Z"></path><path class="cls-2" d="m210.14,50.41h-1.56l-3.36-4.93h-.01v4.93h-1.58v-7.55h1.6l3.33,4.85h0v-4.85h1.57v7.55Z"></path><path class="cls-2" d="m219.63,46.64c0,2.28-1.68,3.77-4.11,3.77h-2.23v-7.55h2.23c2.46,0,4.11,1.51,4.11,3.77Zm-4.04,2.28c1.41,0,2.37-.82,2.37-2.27s-.96-2.28-2.37-2.28h-.65v4.54h.65Z"></path><path class="cls-2" d="m226.42,42.86h4.62v1.51h-2.97v1.89h2.79v1.42h-2.79v2.73h-1.65v-7.55Z"></path><path class="cls-2" d="m233.85,42.86h1.65v6.05h3.13v1.5h-4.78v-7.55Z"></path><path class="cls-2" d="m241.16,42.86h4.73v1.49h-3.08v1.57h2.82v1.37h-2.82v1.65h3.08v1.48h-4.73v-7.55Z"></path><path class="cls-2" d="m250.49,46.64l-2.44-3.77h1.9l1.63,2.59,1.55-2.59h1.88l-2.43,3.75,2.47,3.79h-1.89l-1.65-2.6-1.59,2.6h-1.87l2.44-3.77Z"></path><path class="cls-2" d="m257.43,42.86h1.65v7.55h-1.65v-7.55Z"></path><path class="cls-2" d="m262.23,42.86h2.82c1.71,0,2.61.9,2.61,2.02,0,.84-.48,1.38-1.1,1.65.85.28,1.3.93,1.3,1.76,0,1.13-.87,2.11-2.69,2.11h-2.94v-7.55Zm2.76,3.14c.74,0,1.11-.39,1.11-.88s-.38-.86-1.08-.86h-1.15v1.74h1.12Zm.06,3.01c.79,0,1.2-.39,1.2-.93s-.46-.92-1.17-.92h-1.21v1.85h1.18Z"></path><path class="cls-2" d="m270.62,42.86h1.65v7.55h-1.65v-7.55Z"></path><path class="cls-2" d="m275.42,42.86h1.65v6.05h3.13v1.5h-4.78v-7.55Z"></path><path class="cls-2" d="m282.74,42.86h1.65v7.55h-1.65v-7.55Z"></path><path class="cls-2" d="m289.14,44.37h-2.22v-1.51h6.06v1.51h-2.21v6.04h-1.64v-6.04Z"></path><path class="cls-2" d="m299.8,50.41l-.67-1.84h-2.82l-.65,1.84h-1.72l2.82-7.55h1.9l2.86,7.55h-1.73Zm-3.26-9.85c.42,0,.77.33.77.75s-.34.74-.77.74-.76-.33-.76-.74.34-.75.76-.75Zm2.12,6.66l-.95-2.63-.95,2.63h1.9Zm.22-6.66c.42,0,.76.33.76.75s-.34.74-.76.74-.76-.33-.76-.74.33-.75.76-.75Z"></path><path class="cls-2" d="m304.69,44.37h-2.22v-1.51h6.06v1.51h-2.21v6.04h-1.64v-6.04Z"></path><path class="cls-2" d="m58.46,11.18l-9.84-4.62-7.96-3.74h-.01s-4.26-2-4.26-2c-2.35-1.1-5.06-1.1-7.41,0l-4.27,2-8.05,3.78-2.15,1.01c-2.31,1.09-2.31,4.37,0,5.46h0c1.36.64,2.93.64,4.29,0l5.83-2.73,6.01-2.81c1.3-.61,2.81-.61,4.11,0l5.91,2.77,8.68,4.07c2.08.98,3.41,3.06,3.41,5.36h0c0,1.77-1.84,2.93-3.43,2.18l-13.86-6.5c-1.8-.84-3.88-.84-5.68,0l-1.92.9c-1.28.6-1.28,2.41,0,3.01l38.31,17.98c1.08.51,2.32-.28,2.32-1.47v-8.9c0-6.75-3.9-12.88-10.01-15.75Z"></path><path class="cls-2" d="m53.95,39.24h0c-1.36-.64-2.93-.64-4.29,0l-5.83,2.73-6.01,2.81c-1.3.61-2.81.61-4.11,0l-5.91-2.77-8.68-4.07c-2.08-.98-3.41-3.06-3.41-5.36h0c0-1.77,1.84-2.93,3.43-2.18l13.86,6.5c1.8.84,3.88.84,5.68,0l1.92-.9c1.28-.6,1.28-2.41,0-3.01L2.32,15.01c-1.08-.51-2.32.28-2.32,1.47v8.9c0,6.75,3.9,12.88,10.01,15.75l9.84,4.62,7.96,3.74h.01s4.26,2,4.26,2c2.35,1.1,5.06,1.1,7.41,0l4.27-2,8.05-3.78,2.15-1.01c2.31-1.09,2.31-4.37,0-5.46Z"></path></g></svg>